<?xml version="1.0" encoding="iso-8859-1"?>
<!DOCTYPE svg PUBLIC "-//W3C//DTD SVG 1.1//EN" "http://www.w3.org/Graphics/SVG/1.1/DTD/svg11.dtd">
<svg 
 version="1.1" xmlns="http://www.w3.org/2000/svg" xmlns:xlink="http://www.w3.org/1999/xlink" x="0px" y="0px" width="512px"
	 height="512px" viewBox="0 0 512 512" style="enable-background:new 0 0 512 512;" xml:space="preserve"
><g id="7935ec95c421cee6d86eb22ecd14a68a"><g></g><g fill="#1b9af7"><path style="display: inline; fill-rule: evenodd; clip-rule: evenodd;" d="M454.723,114.056H416.87H95.129
		c-10.409,0-18.926-8.517-18.926-18.926c0-10.409,8.517-18.926,18.926-18.926H416.87V38.352c0-21.688-17.033-37.852-37.852-37.852
		L76.203,38.352c-20.818,0-37.852,17.743-37.852,39.43v394.291c0,21.684,17.033,39.427,37.852,39.427h302.815
		c20.818,0,37.852-17.743,37.852-39.427V270.194l41.638-31.228c8.328-6.247,15.141-19.873,15.141-30.282v-75.704
		C473.648,122.572,465.132,114.056,454.723,114.056z M341.167,360.093h-75.704v75.703h-75.704v-75.703h-75.703v-75.704h75.703
		v-75.704h75.704v75.704h75.704V360.093z"></path></g></g></svg>